<?xml version="1.0" encoding="iso-8859-1"?>
<!-- Generator: Adobe Illustrator 19.0.0, SVG Export Plug-In . SVG Version: 6.00 Build 0)  -->
<svg version="1.1" id="Layer_1" xmlns="http://www.w3.org/2000/svg" xmlns:xlink="http://www.w3.org/1999/xlink" x="0px" y="0px"
	 viewBox="0 0 511.999 511.999" style="enable-background:new 0 0 511.999 511.999;" xml:space="preserve">
<path style="fill:#FFD592;" d="M436.906,436.969c-99.897,99.897-262.349,99.993-362.13,0.211
	c-99.784-99.78-99.687-262.231,0.21-362.128C120.926,29.11,182.026,2.533,247.034,0.211c64.657-2.31,127.129,19.523,175.909,61.477
	c9.374,8.062,14.959,19.665,15.416,32.025c0.456,12.36-4.259,24.359-13.01,33.11l-42.353,42.353
	c-12.486,12.484-12.5,32.794-0.026,45.265c12.471,12.473,32.782,12.459,45.265-0.025l7.21-7.21
	c12.261-12.261,30.527-16.29,46.789-10.313c16.262,5.976,27.559,20.861,28.941,38.137
	C517.185,310.157,490.114,383.763,436.906,436.969z"/>
<g style="opacity:0.1;">
	<path d="M101.685,437.18C1.903,337.4,1.997,174.951,101.898,75.052C146.861,30.087,206.351,3.685,269.81,0.407
		c-7.549-0.393-15.145-0.468-22.776-0.196c-65.008,2.323-126.108,28.9-172.049,74.842c-99.897,99.897-99.994,262.348-0.21,362.128
		c53.271,53.271,124.405,78.065,194.345,74.412C208.15,508.417,148.128,483.625,101.685,437.18z"/>
</g>
<ellipse transform="matrix(-0.7476 -0.6642 0.6642 -0.7476 499.6578 386.9299)" style="fill:#EF3E3B;" cx="323.357" cy="98.516" rx="39.163" ry="39.209"/>
<path style="fill:#4BC8DD;" d="M189.809,57.904c21.602-1.288,40.141,15.178,41.402,36.785c1.263,21.604-15.222,40.164-36.826,41.451
	c-21.604,1.29-40.141-15.178-41.404-36.782C151.713,77.75,168.204,59.193,189.809,57.904z"/>
<path style="fill:#FF8828;" d="M68.845,162.774c14.384-16.188,39.147-17.668,55.32-3.301c16.168,14.366,17.616,39.132,3.235,55.321
	c-14.384,16.188-39.149,17.665-55.318,3.3C55.91,203.731,54.463,178.963,68.845,162.774z"/>
<path style="fill:#22E0C3;" d="M57.359,322.389c-1.267-21.606,15.22-40.164,36.826-41.454c21.604-1.287,40.141,15.181,41.404,36.787
	c1.263,21.606-15.224,40.163-36.828,41.452C77.157,360.466,58.622,343.994,57.359,322.389z"/>
<path style="fill:#FFFFFF;" d="M162.075,443.245c-16.17-14.365-17.62-39.129-3.237-55.32c14.384-16.188,39.149-17.666,55.316-3.3
	c16.172,14.366,17.618,39.13,3.239,55.32C203.009,456.137,178.244,457.613,162.075,443.245z"/>
<path style="fill:#976EC6;" d="M321.655,454.551c-21.604,1.288-40.139-15.177-41.404-36.782
	c-1.261-21.607,15.224-40.164,36.828-41.453c21.604-1.286,40.141,15.18,41.404,36.784
	C359.746,434.703,343.259,453.262,321.655,454.551z"/>
<ellipse transform="matrix(0.6642 -0.7476 0.7476 0.6642 -103.1644 417.7037)" style="fill:#4351B5;" cx="413.343" cy="323.679" rx="39.209" ry="39.163"/>
<path style="opacity:0.1;enable-background:new    ;" d="M314.728,127.83c-16.17-14.365-17.62-39.131-3.237-55.321
	c5.655-6.368,12.92-10.448,20.635-12.195c-13.492-3.073-28.208,1.11-38.055,12.195c-14.384,16.19-12.933,40.956,3.237,55.321
	c9.811,8.715,22.78,11.589,34.68,8.894C325.777,135.309,319.826,132.358,314.728,127.83z"/>
<path style="opacity:0.1;enable-background:new    ;" d="M170.401,99.357c-1.139-19.425,12.076-36.375,30.454-40.54
	c-3.537-0.806-7.241-1.14-11.045-0.913c-21.606,1.288-38.096,19.846-36.828,41.453c1.263,21.604,19.8,38.074,41.404,36.782
	c2.182-0.13,4.308-0.445,6.374-0.912C184.212,131.46,171.442,117.156,170.401,99.357z"/>
<path style="opacity:0.1;enable-background:new    ;" d="M89.501,218.095c-16.172-14.363-17.618-39.131-3.237-55.32
	c5.657-6.368,12.924-10.449,20.639-12.196c-13.492-3.074-28.208,1.111-38.059,12.196c-14.382,16.189-12.935,40.957,3.237,55.32
	c9.811,8.715,22.782,11.589,34.681,8.894C100.551,225.574,94.599,222.624,89.501,218.095z"/>
<path style="opacity:0.1;enable-background:new    ;" d="M74.779,322.389c-1.139-19.424,12.074-36.376,30.454-40.541
	c-3.537-0.807-7.243-1.14-11.047-0.913c-21.606,1.289-38.094,19.848-36.826,41.454c1.263,21.605,19.798,38.076,41.402,36.785
	c2.182-0.131,4.306-0.445,6.37-0.912C88.587,354.493,75.82,340.188,74.779,322.389z"/>
<path style="opacity:0.1;enable-background:new    ;" d="M179.495,443.245c-16.17-14.365-17.62-39.129-3.237-55.32
	c5.657-6.368,12.922-10.448,20.637-12.195c-13.492-3.074-28.208,1.111-38.057,12.195c-14.384,16.191-12.933,40.955,3.237,55.32
	c9.811,8.718,22.782,11.592,34.681,8.897C190.544,450.725,184.593,447.774,179.495,443.245z"/>
<path style="opacity:0.1;enable-background:new    ;" d="M297.671,417.767c-1.135-19.424,12.078-36.375,30.454-40.54
	c-3.537-0.806-7.241-1.14-11.045-0.913c-21.604,1.289-38.09,19.846-36.828,41.453c1.265,21.605,19.8,38.072,41.404,36.783
	c2.182-0.13,4.308-0.445,6.374-0.912C311.483,449.869,298.714,435.568,297.671,417.767z"/>
<path style="opacity:0.1;enable-background:new    ;" d="M404.722,352.98c-16.172-14.366-17.618-39.131-3.235-55.32
	c5.657-6.368,12.922-10.448,20.637-12.195c-13.492-3.074-28.208,1.11-38.057,12.195c-14.384,16.189-12.937,40.954,3.235,55.32
	c9.811,8.716,22.782,11.589,34.681,8.895C415.771,360.46,409.82,357.508,404.722,352.98z"/>
<g>
	<path style="fill:#F9BD6E;" d="M294.406,240.353h-77.341c-4.329,0-7.837-3.508-7.837-7.837c0-4.328,3.508-7.837,7.837-7.837h77.341
		c4.329,0,7.837,3.509,7.837,7.837C302.242,236.845,298.734,240.353,294.406,240.353z"/>
	<path style="fill:#F9BD6E;" d="M274.799,269.986h-38.126c-4.329,0-7.837-3.508-7.837-7.837c0-4.328,3.508-7.837,7.837-7.837h38.126
		c4.329,0,7.837,3.509,7.837,7.837C282.636,266.477,279.128,269.986,274.799,269.986z"/>
	<path style="fill:#F9BD6E;" d="M294.406,299.617h-77.341c-4.329,0-7.837-3.509-7.837-7.837c0-4.328,3.508-7.837,7.837-7.837h77.341
		c4.329,0,7.837,3.509,7.837,7.837C302.242,296.11,298.734,299.617,294.406,299.617z"/>
</g>
<g>
</g>
<g>
</g>
<g>
</g>
<g>
</g>
<g>
</g>
<g>
</g>
<g>
</g>
<g>
</g>
<g>
</g>
<g>
</g>
<g>
</g>
<g>
</g>
<g>
</g>
<g>
</g>
<g>
</g>
</svg>
